<?xml version="1.0" standalone="no"?>
<!DOCTYPE svg PUBLIC "-//W3C//DTD SVG 20010904//EN"
 "http://www.w3.org/TR/2001/REC-SVG-20010904/DTD/svg10.dtd">
<svg version="1.0" xmlns="http://www.w3.org/2000/svg"
 width="1024.000000pt" height="970.000000pt" viewBox="0 0 1024.000000 970.000000"
 preserveAspectRatio="xMidYMid meet">

<g transform="translate(0.000000,970.000000) scale(0.100000,-0.100000)"
fill="#000000" stroke="none">
<path d="M5696 9693 c-1 -1 -17 -5 -35 -8 -19 -3 -37 -8 -40 -10 -4 -2 -28 -6
-55 -9 -26 -3 -51 -8 -55 -10 -3 -3 -28 -7 -55 -10 -26 -3 -51 -8 -55 -10 -3
-3 -28 -7 -55 -10 -26 -3 -51 -8 -55 -10 -3 -3 -29 -7 -56 -11 -61 -8 -80 -11
-125 -20 -19 -4 -45 -9 -57 -10 -11 -2 -29 -6 -40 -9 -10 -3 -38 -8 -63 -12
-69 -9 -73 -10 -105 -18 -16 -3 -43 -8 -60 -10 -16 -2 -41 -7 -55 -10 -22 -5
-74 -14 -120 -20 -8 -2 -28 -5 -45 -9 -27 -6 -85 -16 -125 -21 -8 -2 -28 -5
-45 -9 -27 -6 -85 -16 -125 -21 -8 -2 -28 -5 -45 -9 -27 -6 -85 -16 -125 -21
-8 -2 -28 -5 -45 -9 -27 -6 -85 -16 -125 -21 -8 -2 -28 -5 -45 -9 -27 -6 -85
-16 -125 -21 -8 -2 -28 -5 -45 -9 -27 -6 -85 -16 -125 -21 -8 -2 -28 -5 -45
-9 -27 -6 -85 -16 -125 -21 -8 -2 -28 -5 -45 -9 -29 -6 -88 -16 -132 -22 -11
-2 -29 -6 -40 -9 -10 -3 -38 -8 -63 -12 -82 -11 -88 -12 -107 -18 -10 -3 -38
-8 -63 -12 -67 -9 -72 -10 -105 -17 -27 -6 -85 -16 -125 -21 -8 -2 -28 -5 -45
-9 -27 -6 -85 -16 -125 -21 -8 -2 -28 -5 -45 -9 -16 -3 -48 -9 -70 -13 -22 -3
-49 -8 -60 -9 -11 -2 -36 -6 -55 -9 -19 -3 -46 -8 -60 -11 -26 -6 -60 -12
-110 -19 -16 -3 -37 -7 -47 -10 -10 -3 -38 -8 -63 -12 -67 -9 -72 -10 -105
-17 -27 -6 -85 -16 -125 -21 -8 -2 -28 -5 -45 -9 -27 -6 -85 -16 -125 -21 -8
-2 -28 -5 -45 -9 -16 -3 -48 -9 -70 -13 -22 -3 -49 -8 -60 -9 -11 -2 -36 -6
-55 -9 -19 -3 -46 -8 -60 -11 -26 -6 -60 -12 -110 -19 -16 -3 -37 -7 -47 -10
-10 -3 -38 -8 -63 -12 -67 -9 -72 -10 -105 -17 -27 -6 -85 -16 -125 -21 -8 -2
-28 -5 -45 -9 -16 -3 -48 -9 -70 -13 -22 -3 -49 -8 -60 -9 -11 -2 -36 -6 -55
-9 -19 -3 -46 -8 -60 -11 -26 -6 -60 -12 -110 -19 -16 -3 -37 -7 -47 -10 -10
-3 -38 -8 -63 -12 -25 -3 -54 -7 -65 -9 -11 -2 -34 -6 -52 -9 -18 -2 -40 -7
-50 -10 -10 -3 -38 -8 -63 -12 -25 -3 -52 -7 -60 -8 -21 -4 -82 -17 -102 -22
-17 -5 -18 -195 -18 -3814 0 -2311 4 -3811 9 -3815 5 -3 22 -7 38 -9 54 -8
108 -17 133 -22 14 -3 41 -8 60 -10 19 -3 43 -7 53 -10 10 -3 32 -8 50 -10 44
-7 66 -11 107 -19 41 -8 60 -11 120 -19 25 -4 53 -9 63 -12 11 -3 29 -7 40 -9
12 -1 38 -6 57 -10 41 -8 60 -11 120 -19 25 -4 53 -9 63 -12 11 -3 29 -7 40
-9 44 -6 103 -16 132 -22 17 -4 37 -7 45 -8 8 -2 31 -6 50 -10 41 -8 59 -11
120 -19 25 -4 53 -9 63 -12 11 -3 29 -7 40 -9 44 -6 103 -16 132 -22 17 -4 37
-7 45 -8 8 -2 31 -6 50 -10 41 -8 59 -11 120 -19 25 -4 53 -9 63 -12 11 -3 29
-7 40 -9 49 -7 104 -16 127 -21 14 -3 39 -8 55 -10 17 -2 44 -7 60 -10 17 -4
37 -8 45 -10 40 -5 98 -15 125 -21 17 -4 37 -7 45 -8 8 -2 31 -6 50 -10 41 -8
59 -11 120 -19 25 -4 53 -9 63 -12 11 -3 29 -7 40 -9 44 -6 103 -16 132 -22
17 -4 37 -7 45 -8 8 -2 31 -6 50 -10 41 -8 59 -11 120 -19 25 -4 53 -9 63 -12
19 -6 25 -7 107 -18 25 -4 53 -9 63 -12 11 -3 29 -7 40 -9 44 -6 103 -16 132
-22 17 -4 37 -7 45 -9 40 -5 98 -15 125 -21 17 -4 37 -7 45 -8 8 -2 31 -6 50
-10 19 -4 44 -8 55 -10 72 -11 104 -17 130 -22 33 -7 38 -8 105 -17 25 -4 53
-9 63 -12 11 -3 29 -7 40 -9 44 -6 103 -16 132 -22 17 -4 37 -7 45 -9 40 -5
98 -15 125 -21 17 -4 37 -7 45 -8 8 -2 31 -6 50 -10 41 -8 59 -11 120 -19 25
-4 53 -9 63 -12 19 -6 25 -7 107 -18 25 -4 53 -9 63 -12 10 -3 30 -7 45 -9 15
-3 38 -7 52 -10 14 -3 41 -8 60 -11 19 -3 44 -7 55 -9 11 -2 40 -6 65 -9 25
-4 53 -9 63 -12 10 -3 32 -8 50 -10 18 -3 41 -7 52 -8 11 -2 38 -7 60 -10 22
-4 51 -9 65 -12 14 -3 38 -8 53 -10 15 -2 54 -8 85 -14 58 -11 78 -15 142 -25
19 -3 44 -8 55 -9 11 -2 45 -7 76 -11 53 -7 58 -6 69 15 20 37 21 59 27 500 3
234 6 426 7 426 0 1 798 5 1771 9 1854 8 1878 9 2131 19 189 8 246 14 278 26
13 5 27 6 30 3 3 -4 6 -1 6 5 0 7 4 12 9 12 11 0 101 90 101 101 0 5 5 9 10 9
6 0 9 3 9 8 -1 4 0 9 1 12 14 36 26 374 35 1055 7 507 7 4743 0 5250 -8 598
-18 921 -30 1020 -8 70 -112 177 -185 191 -51 10 -219 18 -600 29 -91 3 -931
5 -1867 5 l-1703 0 -1 392 c-2 577 -1 571 -81 566 -22 -2 -40 -4 -42 -5z
m4184 -4820 l0 -3538 -2030 3 -2030 2 0 350 0 350 690 0 690 0 0 425 0 425
-690 0 -690 0 0 160 0 160 690 0 690 0 0 445 0 445 -690 0 -690 0 0 165 0 165
690 0 690 0 0 440 0 440 -690 0 -690 0 0 165 0 165 690 0 690 0 0 440 0 440
-690 0 -690 0 0 170 0 170 690 0 690 0 0 440 0 440 -690 0 -690 0 0 335 0 335
2030 0 2030 0 0 -3537z m-5960 1692 c-7 -8 -9 -15 -5 -15 4 0 -5 -20 -19 -45
-15 -25 -24 -45 -21 -45 3 0 -5 -19 -17 -42 -12 -24 -21 -46 -20 -50 1 -5 -3
-8 -10 -8 -6 0 -8 -3 -5 -7 4 -3 -11 -39 -33 -78 -21 -40 -36 -75 -33 -79 4
-3 0 -6 -7 -6 -7 0 -10 -3 -7 -7 4 -3 -13 -43 -38 -88 -24 -45 -42 -85 -38
-89 3 -3 1 -6 -6 -6 -7 0 -9 -4 -6 -10 3 -5 1 -10 -6 -10 -7 0 -9 -3 -6 -7 4
-3 -22 -61 -57 -129 -36 -67 -62 -125 -59 -128 4 -3 1 -6 -6 -6 -7 0 -9 -4 -6
-10 3 -5 1 -10 -6 -10 -7 0 -9 -3 -6 -7 4 -3 -20 -57 -52 -119 -33 -61 -57
-115 -54 -118 4 -3 0 -6 -7 -6 -7 0 -10 -3 -7 -7 4 -3 -11 -39 -32 -79 -22
-40 -37 -75 -33 -78 3 -3 -1 -6 -8 -6 -7 0 -10 -3 -7 -7 4 -3 -9 -35 -28 -70
-19 -35 -32 -63 -29 -63 3 0 -6 -20 -20 -45 -15 -25 -24 -45 -21 -45 3 0 -4
-19 -16 -42 -12 -24 -20 -43 -18 -43 2 -1 -4 -13 -14 -28 -9 -15 -15 -27 -11
-27 4 0 1 -7 -6 -15 -10 -12 -10 -18 0 -30 7 -8 9 -15 5 -15 -3 0 3 -16 15
-35 12 -19 19 -35 16 -35 -4 0 8 -25 25 -55 17 -30 28 -55 25 -55 -3 0 10 -28
29 -63 19 -35 32 -67 28 -70 -3 -4 0 -7 7 -7 7 0 11 -3 7 -6 -3 -3 14 -43 39
-88 24 -46 41 -86 37 -89 -3 -4 0 -7 7 -7 7 0 11 -3 7 -6 -3 -3 35 -83 84
-178 49 -95 86 -176 82 -179 -3 -4 -1 -7 6 -7 7 0 9 -4 6 -10 -3 -5 -1 -10 5
-10 6 0 8 -4 5 -10 -3 -5 -1 -10 5 -10 6 0 8 -4 5 -10 -3 -5 -1 -10 5 -10 6 0
8 -5 5 -10 -3 -5 -1 -10 5 -10 6 0 8 -4 5 -10 -3 -5 -1 -10 6 -10 7 0 10 -3 6
-6 -3 -3 68 -151 159 -328 90 -178 161 -326 157 -329 -3 -4 -1 -7 6 -7 7 0 9
-4 6 -10 -3 -5 -1 -10 5 -10 6 0 8 -4 5 -10 -3 -6 -1 -10 4 -10 6 0 11 -5 11
-11 0 -7 -26 -9 -77 -5 -43 3 -127 8 -188 11 -131 6 -239 16 -335 30 -66 10
-128 18 -141 17 -14 0 -46 40 -48 61 0 4 -8 21 -16 37 -9 17 -13 30 -10 30 3
0 -2 11 -11 25 -9 14 -13 25 -9 25 3 0 -2 15 -13 33 -12 17 -21 35 -21 40 0 4
-8 21 -16 37 -9 17 -13 30 -10 30 3 0 -2 11 -11 25 -9 14 -13 25 -9 25 3 0 -4
17 -17 38 -12 20 -21 37 -19 37 4 0 -17 52 -36 87 -7 15 -14 30 -13 33 0 3 -7
19 -15 35 -9 17 -13 30 -10 30 3 0 -2 11 -11 25 -9 14 -13 25 -10 25 4 0 -1
11 -10 25 -9 14 -13 25 -9 25 3 0 -3 16 -15 35 -12 19 -19 35 -16 35 4 0 -1
11 -10 25 -9 14 -13 25 -10 25 4 0 -1 11 -10 25 -9 14 -13 25 -9 25 3 0 -3 16
-15 35 -12 19 -19 35 -16 35 4 0 -1 11 -10 25 -9 14 -13 25 -10 25 4 0 -1 11
-10 25 -9 14 -13 25 -10 25 4 0 -1 11 -10 25 -9 14 -13 25 -10 25 4 0 0 10 -8
23 -8 12 -16 27 -17 32 0 6 -6 20 -13 33 -11 21 -14 22 -25 8 -8 -9 -10 -16
-7 -16 4 0 1 -10 -6 -22 -7 -13 -13 -25 -14 -28 0 -3 -4 -14 -8 -25 -9 -22
-13 -35 -15 -50 -1 -5 -9 -20 -17 -32 -8 -13 -12 -23 -9 -23 3 0 0 -10 -7 -22
-6 -13 -13 -27 -14 -33 -1 -5 -9 -27 -17 -48 -9 -20 -17 -41 -17 -45 -1 -4 -8
-17 -16 -29 -8 -13 -12 -23 -8 -23 3 0 -1 -11 -10 -25 -9 -14 -14 -25 -11 -25
4 0 0 -12 -8 -27 -19 -36 -40 -88 -36 -88 2 0 -7 -17 -19 -37 -13 -21 -21 -38
-17 -38 4 0 -3 -16 -15 -35 -12 -19 -19 -35 -15 -35 4 0 -3 -16 -15 -35 -12
-19 -19 -35 -15 -35 4 0 -5 -20 -19 -45 -15 -25 -24 -45 -21 -45 4 0 -9 -29
-29 -64 -19 -35 -33 -66 -29 -70 3 -3 1 -6 -6 -6 -7 0 -9 -4 -6 -10 3 -5 1
-10 -5 -10 -6 0 -8 -4 -5 -10 3 -5 1 -10 -5 -10 -6 0 -8 -4 -5 -10 3 -5 1 -10
-4 -10 -6 0 -11 -6 -11 -14 0 -8 -6 -21 -13 -28 -7 -7 -16 -21 -20 -31 -9 -24
-54 -39 -102 -33 -181 22 -172 22 -398 24 l-177 2 400 800 c322 643 398 804
391 819 -6 10 -7 21 -4 25 3 3 0 6 -7 6 -7 0 -11 3 -7 6 3 3 -7 30 -24 58 -16
29 -26 56 -22 59 3 4 0 7 -7 7 -7 0 -11 3 -7 6 3 3 -8 30 -25 60 -16 30 -27
54 -24 54 3 0 -7 24 -24 53 -16 30 -27 57 -23 60 3 4 0 7 -7 7 -7 0 -11 3 -7
6 3 3 -7 30 -24 58 -16 29 -26 56 -22 59 3 4 0 7 -7 7 -7 0 -11 3 -7 6 3 3 -7
30 -24 58 -16 29 -26 56 -22 59 3 4 0 7 -7 7 -7 0 -11 3 -7 6 3 3 -8 30 -25
60 -16 30 -27 54 -24 54 3 0 -8 25 -25 55 -17 30 -28 55 -25 55 4 0 -5 20 -19
43 -14 24 -22 47 -18 50 3 4 1 7 -5 7 -7 0 -11 3 -10 8 1 4 -5 21 -15 38 -9
17 -13 34 -10 38 4 3 1 6 -5 6 -7 0 -11 3 -10 8 1 4 -6 22 -15 39 -10 18 -17
35 -17 38 0 3 -7 19 -15 35 -9 17 -13 30 -10 30 3 0 -2 11 -11 25 -9 14 -13
25 -10 25 4 0 -1 11 -10 25 -9 14 -13 25 -10 25 4 0 -1 11 -10 25 -9 14 -13
25 -9 25 4 0 2 7 -5 15 -7 8 -9 15 -5 15 4 0 2 7 -5 15 -7 8 -9 15 -6 15 4 0
4 6 -1 13 -9 14 -12 28 -19 80 -4 27 -2 37 8 38 7 0 22 3 33 5 82 20 600 28
600 9 1 -5 7 -21 15 -35 7 -14 12 -25 11 -25 -1 0 3 -13 9 -30 7 -16 13 -34
14 -40 2 -5 9 -23 15 -40 7 -16 14 -34 15 -40 3 -9 8 -23 24 -65 3 -8 6 -17 6
-20 1 -3 7 -15 14 -27 7 -13 10 -23 6 -23 -3 0 -1 -7 6 -15 7 -8 10 -15 6 -15
-4 0 0 -10 8 -22 8 -13 16 -27 17 -33 1 -5 6 -21 11 -35 6 -14 11 -29 12 -35
2 -5 9 -23 15 -40 7 -16 14 -34 15 -40 2 -5 9 -23 15 -40 7 -16 14 -34 15 -40
2 -5 9 -23 15 -40 7 -16 14 -34 15 -40 3 -10 7 -21 22 -60 4 -11 8 -22 9 -25
1 -3 5 -13 8 -22 4 -10 10 -26 14 -35 3 -10 7 -20 7 -23 1 -3 7 -15 14 -27 7
-13 10 -23 6 -23 -3 0 -1 -7 6 -15 7 -8 10 -15 6 -15 -4 0 1 -11 10 -25 9 -14
13 -25 9 -25 -4 0 -2 -7 5 -15 7 -8 10 -15 6 -15 -4 0 1 -11 10 -24 8 -14 15
-27 15 -30 -3 -19 1 -26 13 -26 9 0 24 31 42 83 14 45 31 88 37 95 5 6 6 12 2
12 -4 0 0 11 9 25 9 14 14 25 10 25 -3 0 1 11 10 25 9 14 14 25 10 25 -3 0 1
11 10 25 9 14 14 25 10 25 -3 0 1 11 10 25 9 14 14 25 10 25 -3 0 1 11 10 25
9 14 14 25 10 25 -3 0 1 11 10 25 9 14 14 25 10 25 -3 0 4 16 16 35 12 19 18
35 15 35 -4 0 0 11 9 25 9 14 14 25 11 25 -3 0 1 13 10 30 8 16 14 31 13 32
-2 2 8 20 20 41 13 20 20 37 17 37 -4 0 0 11 9 25 9 14 14 25 11 25 -3 0 1 13
10 30 8 16 15 32 15 35 0 3 7 19 15 35 8 16 15 32 15 35 0 3 7 19 15 35 8 16
15 32 15 35 0 3 7 19 15 35 8 16 14 31 13 32 -2 2 8 20 20 41 13 20 21 37 17
37 -4 0 3 16 15 35 12 19 18 35 13 35 -4 0 -1 5 8 10 8 5 103 12 210 16 107 3
196 8 197 9 2 2 67 4 144 4 123 1 139 -1 128 -14z"/>
<path d="M7530 7300 l0 -440 820 0 820 0 0 440 0 440 -820 0 -820 0 0 -440z"/>
<path d="M7532 6083 l3 -438 815 0 815 0 3 438 2 437 -820 0 -820 0 2 -437z"/>
<path d="M7530 4870 l0 -440 820 0 820 0 0 440 0 440 -820 0 -820 0 0 -440z"/>
<path d="M7535 4088 c-3 -7 -4 -206 -3 -443 l3 -430 815 0 815 0 0 440 0 440
-813 3 c-645 2 -814 0 -817 -10z"/>
<path d="M7530 2465 l0 -425 820 0 820 0 0 425 0 425 -820 0 -820 0 0 -425z"/>
</g>
</svg>
